<svg width="1440" height="878" xmlns="http://www.w3.org/2000/svg" xmlns:xlink="http://www.w3.org/1999/xlink"><defs><radialGradient cx="37.409%" cy="12.269%" fx="37.409%" fy="12.269%" r="116.774%" gradientTransform="scale(.60737 1) rotate(4.063 .495 3.532)" id="c"><stop stop-color="#0A0A0E" offset="0%"/><stop stop-color="#202030" offset="100%"/></radialGradient><radialGradient cx="67.673%" cy="34.524%" fx="67.673%" fy="34.524%" r="67.444%" gradientTransform="matrix(.79144 -.0755 .05892 .9806 .12 .058)" id="f"><stop stop-color="#36364C" offset="0%"/><stop stop-color="#10101A" offset="100%"/></radialGradient><radialGradient cx="58.127%" cy="82.924%" fx="58.127%" fy="82.924%" r="121.757%" gradientTransform="scale(.72787 1) rotate(-15.135 .69 .011)" id="i"><stop stop-color="#0A0A0E" offset="0%"/><stop stop-color="#28283A" offset="100%"/><stop stop-color="#191924" offset="100%"/></radialGradient><radialGradient cx="66.304%" cy="-31.296%" fx="66.304%" fy="-31.296%" r="310.036%" gradientTransform="scale(-.34018 -1) rotate(69.162 -1.097 -1.895)" id="l"><stop stop-color="#191924" offset="0%"/><stop stop-color="#0A0A0E" offset="100%"/></radialGradient><path d="M0 0h1440v583.017c-247.333-65.261-446.667-56.41-598 26.554C587.29 749.208 306.623 796.694 0 752.027V0Z" id="b"/><path d="M0 0h1440v583.017c-247.333-65.261-446.667-56.41-598 26.554C587.29 749.208 306.623 796.694 0 752.027V0Z" id="e"/><path d="M0 0h1440v583.017c-247.333-65.261-446.667-56.41-598 26.554C587.29 749.208 306.623 796.694 0 752.027V0Z" id="h"/><path d="M0 0h1440v583.017c-247.333-65.261-446.667-56.41-598 26.554C587.29 749.208 306.623 796.694 0 752.027V0Z" id="k"/><linearGradient x1="70.363%" y1="8.984%" x2="70.363%" y2="61.602%" id="a"><stop stop-color="#0A0A0E" offset="0%"/><stop stop-color="#252536" offset="100%"/></linearGradient></defs><g fill="none" fill-rule="evenodd"><path fill="url(#a)" transform="matrix(1 0 0 -1 0 1320)" d="M0 442h1440v436H0z"/><path d="M0 0h1440v583.017c-247.333-65.261-446.667-56.41-598 26.554C587.29 749.208 306.623 796.694 0 752.027V0Z" fill="#0A0A0E" fill-rule="nonzero"/><mask id="d" fill="#fff"><use xlink:href="#b"/></mask><path fill="url(#c)" fill-rule="nonzero" mask="url(#d)" d="M.626-1.626h1439v874H.626z"/><mask id="g" fill="#fff"><use xlink:href="#e"/></mask><path d="M1439.92 708.92H782.292V189.68c63.498-3.631 111.922-3.631 145.273 0 62.313 6.784 127.337 25.962 194.14 41.195 120.435 27.464 226.506 22.853 318.215-13.834V708.92Z" fill="url(#f)" mask="url(#g)"/><g><mask id="j" fill="#fff"><use xlink:href="#h"/></mask><path d="M0 161.52c55.088 14.535 100.3 24.18 135.635 28.935 89.012 11.977 208.003 12.197 332.192-20.625 231.836-61.272 391.774-64.042 479.815-8.31v649.942H0V161.52Z" fill="url(#i)" fill-rule="nonzero" mask="url(#j)"/></g><mask id="m" fill="#fff"><use xlink:href="#k"/></mask><path d="M1 598.04C109.274 552.013 235.25 529 378.93 529c148.149 0 188.57 34.539 345.22 44.513 79.078 5.035 154.028 2.672 224.85-7.089l-1.142 285.062H1V598.04Z" fill="url(#l)" fill-rule="nonzero" mask="url(#m)"/></g></svg>