<?xml version="1.0" standalone="no"?>
<!DOCTYPE svg PUBLIC "-//W3C//DTD SVG 20010904//EN"
 "http://www.w3.org/TR/2001/REC-SVG-20010904/DTD/svg10.dtd">
<svg version="1.0" xmlns="http://www.w3.org/2000/svg"
 width="2000.000000pt" height="2000.000000pt" viewBox="0 0 2000.000000 2000.000000"
 preserveAspectRatio="xMidYMid meet">

<g transform="translate(0.000000,2000.000000) scale(0.100000,-0.100000)"
fill="#000000" stroke="none">
<path d="M233 12490 c-63 -13 -116 -44 -161 -95 -79 -89 -72 121 -70 -2375 l3
-2235 32 -61 c40 -77 125 -155 201 -186 l57 -23 2684 -3 c2393 -2 2691 -1
2745 13 111 29 205 107 255 214 l26 56 3 2229 c1 1470 -1 2241 -8 2266 -14 52
-58 114 -106 150 -80 58 -115 61 -611 58 l-448 -3 -57 -28 c-59 -29 -105 -75
-135 -137 -17 -33 -18 -136 -23 -1720 l-5 -1685 -1595 0 -1595 0 -5 1685 -5
1685 -31 55 c-39 70 -116 126 -193 140 -64 12 -897 12 -958 0z"/>
<path d="M14301 12489 c-116 -20 -221 -102 -278 -218 l-28 -56 0 -2250 0
-2250 31 -55 c17 -30 50 -70 73 -87 81 -63 97 -64 623 -61 530 3 508 0 592 78
24 22 55 62 68 88 l23 47 5 1616 5 1615 28 42 c15 23 46 52 70 64 l42 23 1445
0 1445 0 42 -23 c24 -12 55 -41 70 -64 l28 -42 5 -1615 c5 -1483 6 -1619 22
-1653 24 -53 92 -123 146 -150 l47 -23 495 0 495 0 51 27 c29 15 68 46 88 69
72 84 66 -111 64 2369 l-3 2235 -27 57 c-54 115 -162 197 -288 217 -82 14
-5299 13 -5379 0z"/>
<path d="M7138 12437 c-107 -45 -181 -124 -219 -233 -18 -52 -19 -120 -19
-2256 0 -1443 4 -2215 10 -2239 14 -52 59 -114 106 -149 80 -58 115 -61 616
-58 452 3 453 3 505 27 29 13 71 43 94 68 80 87 73 -19 79 1270 l5 1153 735
-461 c404 -254 757 -472 785 -487 65 -33 186 -42 266 -19 37 11 286 161 814
491 l760 474 5 -1152 5 -1151 27 -51 c31 -59 84 -108 147 -138 45 -20 59 -21
531 -21 l485 0 57 28 c64 31 101 70 132 137 l21 45 0 2210 0 2210 -24 70 c-32
93 -125 190 -216 225 -80 31 -207 33 -280 4 -27 -12 -585 -389 -1240 -839
-654 -450 -1210 -827 -1234 -838 -58 -25 -158 -26 -209 0 -21 10 -575 388
-1232 839 -657 452 -1211 830 -1230 840 -25 13 -63 19 -130 21 -82 3 -103 0
-152 -20z"/>
<path d="M16482 10151 c-67 -23 -119 -65 -157 -126 l-30 -48 -3 -500 c-3 -557
-3 -557 64 -635 19 -22 60 -53 92 -69 l57 -28 490 0 490 0 47 23 c54 27 119
94 145 149 17 35 18 78 18 538 0 561 3 534 -75 619 -23 25 -63 55 -88 68 -47
23 -49 23 -522 25 -440 3 -479 1 -528 -16z"/>
</g>
</svg>
